<mxfile host="app.diagrams.net" modified="2024-02-08T20:44:02.535Z" agent="Mozilla/5.0 (Windows NT 10.0; Win64; x64; rv:122.0) Gecko/20100101 Firefox/122.0" etag="apKXTo-j03-CuT_jwP18" version="22.1.13" type="github">
  <diagram name="Page-1" id="BcD_z-Z6mWE41c7g1vkq">
    <mxGraphModel dx="3000" dy="1634" grid="0" gridSize="10" guides="1" tooltips="1" connect="1" arrows="1" fold="1" page="1" pageScale="1" pageWidth="2200" pageHeight="900" math="0" shadow="0">
      <root>
        <mxCell id="0" />
        <mxCell id="1" parent="0" />
        <mxCell id="kBLxzkw_PutFiRmcld1j-1" value="" style="image;aspect=fixed;html=1;points=[];align=center;fontSize=12;image=img/lib/azure2/databases/SQL_Database.svg;" parent="1" vertex="1">
          <mxGeometry x="129.5" y="270" width="81" height="108" as="geometry" />
        </mxCell>
        <mxCell id="kBLxzkw_PutFiRmcld1j-3" value="&lt;h1&gt;Other Vendor Database&lt;br&gt;&lt;/h1&gt;&lt;p&gt;Database, which collects information from specific industrial soft&lt;br&gt;&lt;/p&gt;" style="text;html=1;strokeColor=default;fillColor=none;spacing=5;spacingTop=-20;whiteSpace=wrap;overflow=hidden;rounded=0;perimeterSpacing=2;dashed=1;" parent="1" vertex="1">
          <mxGeometry x="70" y="398" width="200" height="130" as="geometry" />
        </mxCell>
        <mxCell id="kBLxzkw_PutFiRmcld1j-4" value="" style="image;aspect=fixed;html=1;points=[];align=center;fontSize=12;image=img/lib/azure2/databases/Data_Factory.svg;" parent="1" vertex="1">
          <mxGeometry x="430" y="278" width="108" height="108" as="geometry" />
        </mxCell>
        <mxCell id="kBLxzkw_PutFiRmcld1j-5" value="" style="image;aspect=fixed;html=1;points=[];align=center;fontSize=12;image=img/lib/azure2/databases/SQL_Database.svg;" parent="1" vertex="1">
          <mxGeometry x="666.25" y="278" width="81" height="108" as="geometry" />
        </mxCell>
        <mxCell id="kBLxzkw_PutFiRmcld1j-6" value="&lt;h1&gt;Operational Data Store (ODS) - Prod&lt;br&gt;&lt;/h1&gt;&lt;p&gt;Data Factory&lt;br&gt;&lt;/p&gt;" style="text;html=1;strokeColor=default;fillColor=none;spacing=5;spacingTop=-20;whiteSpace=wrap;overflow=hidden;rounded=0;perimeterSpacing=2;dashed=1;" parent="1" vertex="1">
          <mxGeometry x="380" y="398" width="200" height="130" as="geometry" />
        </mxCell>
        <mxCell id="kBLxzkw_PutFiRmcld1j-7" value="&lt;h1&gt;ODS - Prod&lt;br&gt;&lt;/h1&gt;" style="text;html=1;strokeColor=default;fillColor=none;spacing=5;spacingTop=-20;whiteSpace=wrap;overflow=hidden;rounded=0;perimeterSpacing=2;dashed=1;" parent="1" vertex="1">
          <mxGeometry x="606" y="398" width="200" height="130" as="geometry" />
        </mxCell>
        <mxCell id="kBLxzkw_PutFiRmcld1j-9" value="" style="image;aspect=fixed;html=1;points=[];align=center;fontSize=12;image=img/lib/azure2/databases/Data_Factory.svg;" parent="1" vertex="1">
          <mxGeometry x="1047" y="208" width="98" height="98" as="geometry" />
        </mxCell>
        <mxCell id="kBLxzkw_PutFiRmcld1j-10" value="" style="image;aspect=fixed;html=1;points=[];align=center;fontSize=12;image=img/lib/azure2/databases/Data_Factory.svg;" parent="1" vertex="1">
          <mxGeometry x="1037" y="546" width="98" height="98" as="geometry" />
        </mxCell>
        <mxCell id="kBLxzkw_PutFiRmcld1j-11" value="&lt;h1&gt;Pre-Prod&lt;br&gt;&lt;/h1&gt;&lt;p&gt;Azure Data Factory&lt;br&gt;&lt;/p&gt;" style="text;html=1;strokeColor=default;fillColor=none;spacing=5;spacingTop=-20;whiteSpace=wrap;overflow=hidden;rounded=0;perimeterSpacing=2;dashed=1;" parent="1" vertex="1">
          <mxGeometry x="1002" y="325" width="200" height="80" as="geometry" />
        </mxCell>
        <mxCell id="kBLxzkw_PutFiRmcld1j-13" value="&lt;h1&gt;Prod&lt;br&gt;&lt;/h1&gt;&lt;p&gt;Azure Data Factory&lt;br&gt;&lt;/p&gt;" style="text;html=1;strokeColor=default;fillColor=none;spacing=5;spacingTop=-20;whiteSpace=wrap;overflow=hidden;rounded=0;perimeterSpacing=2;dashed=1;" parent="1" vertex="1">
          <mxGeometry x="1002" y="682" width="200" height="80" as="geometry" />
        </mxCell>
        <mxCell id="kBLxzkw_PutFiRmcld1j-14" value="" style="image;aspect=fixed;html=1;points=[];align=center;fontSize=12;image=img/lib/azure2/databases/SQL_Database.svg;" parent="1" vertex="1">
          <mxGeometry x="1356" y="208" width="73.5" height="98" as="geometry" />
        </mxCell>
        <mxCell id="kBLxzkw_PutFiRmcld1j-15" value="" style="image;aspect=fixed;html=1;points=[];align=center;fontSize=12;image=img/lib/azure2/databases/SQL_Database.svg;" parent="1" vertex="1">
          <mxGeometry x="1354" y="554" width="73.5" height="98" as="geometry" />
        </mxCell>
        <mxCell id="kBLxzkw_PutFiRmcld1j-16" value="" style="image;aspect=fixed;html=1;points=[];align=center;fontSize=12;image=img/lib/azure2/storage/Storage_Explorer.svg;" parent="1" vertex="1">
          <mxGeometry x="1598" y="154" width="58.4" height="68" as="geometry" />
        </mxCell>
        <mxCell id="kBLxzkw_PutFiRmcld1j-17" value="" style="image;aspect=fixed;html=1;points=[];align=center;fontSize=12;image=img/lib/azure2/storage/Storage_Explorer.svg;" parent="1" vertex="1">
          <mxGeometry x="1598" y="286" width="58.4" height="68" as="geometry" />
        </mxCell>
        <mxCell id="kBLxzkw_PutFiRmcld1j-21" value="" style="image;aspect=fixed;html=1;points=[];align=center;fontSize=12;image=img/lib/azure2/storage/Storage_Explorer.svg;" parent="1" vertex="1">
          <mxGeometry x="1590" y="512" width="58.4" height="68" as="geometry" />
        </mxCell>
        <mxCell id="kBLxzkw_PutFiRmcld1j-22" value="" style="image;aspect=fixed;html=1;points=[];align=center;fontSize=12;image=img/lib/azure2/storage/Storage_Explorer.svg;" parent="1" vertex="1">
          <mxGeometry x="1590" y="644" width="58.4" height="68" as="geometry" />
        </mxCell>
      </root>
    </mxGraphModel>
  </diagram>
</mxfile>
